<svg id="レイヤー_1" data-name="レイヤー 1" xmlns="http://www.w3.org/2000/svg" xmlns:xlink="http://www.w3.org/1999/xlink" viewBox="0 0 1358.84 327.2"><defs><style>.cls-1{fill:#333;}.cls-2{fill:url(#名称未設定グラデーション_2);}.cls-3{fill:url(#名称未設定グラデーション_2-2);}</style><linearGradient id="名称未設定グラデーション_2" x1="465.05" y1="-8008.99" x2="465.05" y2="-7861.18" gradientTransform="matrix(1, 0, 0, -1, -0.36, -7324.96)" gradientUnits="userSpaceOnUse"><stop offset="0" stop-color="#26afff"/><stop offset="1" stop-color="#002f7f"/></linearGradient><linearGradient id="名称未設定グラデーション_2-2" x1="516.66" y1="-4787.33" x2="516.66" y2="-4462.92" gradientTransform="matrix(1, 0, 0, -1, 0, -4105)" xlink:href="#名称未設定グラデーション_2"/></defs><title>logo</title><path class="cls-1" d="M953,683.34H941.7V660.9a102.79,102.79,0,0,1-27.3,9l-1.27-3.56a121.69,121.69,0,0,0,43.12-27.19h-36V634.7H941.7V623.29H953V634.7h21.82a98.21,98.21,0,0,1-20.32,18.54c11.1,2.44,20.92,6.67,26.92,11.55l-7.8,8.05c-7.57-7.59-12.3-11.29-20.62-16Z" transform="translate(-374.93 -357.92)"/><path class="cls-1" d="M1004.25,662.09a62,62,0,0,0-6.15-17.82l2.17-1.32c7.13,4.36,10.27,8.05,13.57,16.1Zm2.63,17.62c8.17-2.24,14.7-5.74,19.35-10.3,6-6.2,9-13,11.92-27.39l10.72,2c-2.93,14-5.55,20.13-11.1,26.4-6.37,6.73-16.35,11.09-29.4,12.87Zm12.6-19.53a51.69,51.69,0,0,0-6-17.55l2.4-1.52c7.2,4.82,10,8.32,13.12,16.17Z" transform="translate(-374.93 -357.92)"/><path class="cls-1" d="M1093.95,643.61c13.87,2.64,23.25,6.2,33.82,13l-8.4,9.44c-8.62-8.65-15.45-13.4-25.42-17.75v34.52h-11.1v-59h11.1Z" transform="translate(-374.93 -357.92)"/><path class="cls-1" d="M1153.2,676.81c26.17-5.74,36.6-17.55,37.95-42.83h-36.22V651.6H1143.6V629.49h60.52C1202.47,664,1188.82,678,1154,681Z" transform="translate(-374.93 -357.92)"/><path class="cls-1" d="M1280.24,655.69l-64,2.9V648l64,3Z" transform="translate(-374.93 -357.92)"/><path class="cls-1" d="M1352.17,633.65c-3.37,15-10.72,27.52-20.85,35.64-9.67,7.46-19.42,11.15-36.37,13.79l-1-3.5a80.88,80.88,0,0,0,25.35-12.14c8.25-5.94,16.12-17.82,19.5-29.3h-19.27c-5.4,8-13.35,14.19-24.22,18.88l-2.25-3c10.2-8.05,16.65-17.16,21.45-30.49l11.85,1.91a90.12,90.12,0,0,1-4,8.18Z" transform="translate(-374.93 -357.92)"/><path class="cls-1" d="M1391.32,632.06a41.24,41.24,0,0,1-5.7,8.84h9.6v3.76h-33.45v-3.76H1369l-.08-.53a59.28,59.28,0,0,0-1.87-8.32h-3.6V628.3H1375V622H1384v6.33h10.42v3.76Zm-2.55,40.32c4.87-1.72,5-1.78,8.32-3.1l1.8,2.51c-5.32,4.29-10.2,7.26-18.52,11.48l-3.52-7.19c2.77-.79,3.3-.92,4-1.12V664.67h-3.53c-.75,10.63-4.35,15.64-13.95,19.8l-1.65-2.24c4.65-3.76,7-9.11,7.65-17.55h-4.35v-16.1h29.1v16.1h-5.4Zm-17.1-40.32a26,26,0,0,1,6.07,6.4l-6.75,2.44h10.12c.6-2.77,1.2-6.27,1.58-8.84Zm14.17,28.84v-8.58h-12.67v8.58Zm37.27,14.25c.07,1.25.45,1.58,1.8,1.65h2.1c1.5-.07,2-.4,2.1-1.72l.53-5.74,4.13.46-.67,7.72c-.45,4.36-2.25,5.87-7,5.87h-5c-4.12-.13-5.85-1.65-5.85-5.35v-13.4h-3.53c-.52,11.22-6.52,17.42-19.72,20.46l-1.42-2.64c9.15-4.42,12.22-8.58,13-17.82h-4.8v-16.1h31.35v16.1h-7Zm4.12-43.09a39.4,39.4,0,0,1-6.07,8.84h12.6v3.76h-37v-3.76h7.27a49.92,49.92,0,0,0-2.17-8.84h-4.12V628.3h12.3V622h9.07v6.33h12.6v3.76Zm-20.7,0a28.07,28.07,0,0,1,6.23,6.4l-7.12,2.44h11l.15-.46.07-.46c.38-1.65,1.05-5.54,1.35-7.92Zm15.3,28.84v-8.58h-14.92v8.58Z" transform="translate(-374.93 -357.92)"/><path class="cls-1" d="M1446.3,639.72h-9V636h9V622.23h9.3V636h6.9v3.76h-6.9v13c1-.26,2.32-.66,6.67-2l1.27,3c-4,2.38-5.55,3.3-7.95,4.49v20.39c-.08,4.22-2,5.87-6.6,5.87h-10.2v-4.16h4.72c2.1-.13,2.63-.59,2.78-2.44V662.42c-1.87.79-4.42,1.85-7.72,3.17l-1.8-8.65c4-.73,5.77-1.06,9.52-2Zm58,7.13a52.26,52.26,0,0,1-12.37,22.37,64.36,64.36,0,0,0,16.88,6,54.09,54.09,0,0,0-4.42,9.37,56.79,56.79,0,0,1-19.27-9.44c-7.27,5-14.32,7.79-25.57,10l-1.42-3.17a65.88,65.88,0,0,0,21.3-12.14,35.25,35.25,0,0,1-8.85-19.2H1465v-3.76h14.47V635.5H1462.2v-3.76h17.32v-9.5h9.67v9.5h18.6v3.76h-18.6v11.35Zm-29.47,3.76c1.5,5.21,4.5,9.3,9.75,13.66a47.06,47.06,0,0,0,7.8-13.66Z" transform="translate(-374.93 -357.92)"/><path class="cls-1" d="M1527.6,630.15c-.9.07-1.8.07-2.1.07-.6,0-1.65,0-3.3-.07l-6.3-.07-.3-4c25-1.06,39.9-2.24,55.5-4.36l9.52,6.4c-11,.73-11.47.73-23.25,1.06-10.5.33-20.25.59-29.25.92a27.25,27.25,0,0,1,9.75,4.62l-9.37,2.71h16.88a22.68,22.68,0,0,0-3.15-6.2l2.85-1.45c4.57,1.52,6.67,2.57,9.67,4.88l-9.3,2.77h14.25a45.82,45.82,0,0,0,4-8.25l11.25,3a41.65,41.65,0,0,1-8.4,5.21h17.17a22.4,22.4,0,0,1-9.3,11.81l-2.62-1.78c.08-.2.22-1.12.38-1.85.38-1.78.67-3,.75-3.5a6.11,6.11,0,0,0,.22-1.25h-50.92c-.22,4.55-1.35,7.13-4.2,10.16l-6.3-6.34a17.82,17.82,0,0,0,5.7-10.16h4.28c.3,1.85.38,2.51.45,2.9h6.08a28,28,0,0,0-3.22-6.07Zm-15.67,51.48c11.4-1.72,20.7-4,28.8-7.06a27.69,27.69,0,0,1-7.35-7.33,81.1,81.1,0,0,1-18.6,6.67l-1.28-3.1c9.07-3.63,15.45-7.46,22-13.4-2-.86-2.7-2-2.7-4.55v-9.77h8.32v7.33c0,1.19.45,1.52,1.88,1.58h14.7c1.43-.07,1.8-.33,1.88-1.52l.15-2,4,.26-.22,4.42c-.3,3.43-2,4.75-6.15,4.75h-10c-1.43,1.25-2.62,2.24-4,3.3h31.57a64,64,0,0,1-16.2,12.67,176.48,176.48,0,0,0,25.2,2.31,75,75,0,0,0-4,8.51c-13.42-.79-25-3-31.57-6.07-8.32,3.3-21.37,5.74-35.55,6.53Zm6.22-27.39a30,30,0,0,0,8-10l4.2.73c-.6,6.53-1.87,10.23-4.8,14.06Zm18.82,11a33.67,33.67,0,0,0,11.17,6,57.09,57.09,0,0,0,9.9-6.34h-20.47l-.3.2Zm12.9-13.86a48.11,48.11,0,0,0-5.1-7.59l2.7-1.78a22.68,22.68,0,0,1,9.52,5.15Zm15.9-7.66c5.48,3.1,8.78,5.74,12.15,10l-8.85,4.16a74,74,0,0,0-6.37-12.61Z" transform="translate(-374.93 -357.92)"/><path class="cls-1" d="M1615.57,636.82c-1.42,17-3.3,26.07-6.53,31.48a89.91,89.91,0,0,1,7.35,5.21l-6.6,7.85c-3-3.89-4.12-5.21-5.47-6.73-4,4-7.95,6.53-14.85,9.44l-2.17-3a35.28,35.28,0,0,0,12.22-11.48c-3.45-3.17-5.32-4.29-11.4-7.13,2.1-7.06,2.78-10.1,5-21.91h-6.37v-3.76h7c.6-4.16,1-7.39,1.8-14.85l9,.92c-1.35,9.37-1.65,11.29-2.1,13.92Zm-13.8,3.76c-1.58,9-3.6,17.82-5,21.32,2.25.92,3.38,1.45,5.33,2.44,2.25-5.41,3.3-10.82,4.58-23.76Zm36.45-1.52a66.78,66.78,0,0,0,5.25-9.77h-26.92v-4.16h41.32c-5.47,8.12-9.3,12.21-15.67,16.56v10.1h16.57V656h-16.57v21.18c-.15,3.3-.6,4.55-2,5.74s-3,1.72-6.52,1.78h-12.3v-4.49h6.9c2.63,0,3.67-.92,3.67-3.23V656H1615.5V651.8h16.42V638.2Z" transform="translate(-374.93 -357.92)"/><path class="cls-1" d="M1701.52,625.6c8,7.19,17.85,11.94,32.25,15.64a98.69,98.69,0,0,0-5,10.29,56.87,56.87,0,0,1-13.42-6.53v3.3H1680v-3.17a87.94,87.94,0,0,1-16.12,7.46l-2.1-3.3c11.77-7,23.25-17.75,29.1-27.52l12.82,1.12Zm11.33,47.85a67.55,67.55,0,0,0-7.35-7.13l3.3-2.44c10.57,4.36,16.65,8.18,23.25,14.78l-11.1,6.2a78.21,78.21,0,0,0-5-7.46c-13.72,2.71-26,4.22-47,5.74l-2.62-9,3,.07h3l6.9.07c.3-.73.52-1.12,1-2.18a72.56,72.56,0,0,0,4.13-10.1,1.83,1.83,0,0,0,.15-.46h-20.7V657.8h67.95v3.76h-34.35c-.3.4-.67,1-1,1.45a58.64,58.64,0,0,1-10.8,11.15Zm1.72-28.91a61.87,61.87,0,0,1-15.6-15.71,73,73,0,0,1-18,15.71Z" transform="translate(-374.93 -357.92)"/><path class="cls-1" d="M754.17,453.08v8.79H687.86V510.5h47.95v8.79H687.86v69.82H665v-136Z" transform="translate(-374.93 -357.92)"/><path class="cls-1" d="M792.23,453.08h22.85v136H792.23Z" transform="translate(-374.93 -357.92)"/><path class="cls-1" d="M977.47,453.08v8.79H928.25V589.11H905.4V461.87H856.08v-8.79Z" transform="translate(-374.93 -357.92)"/><path class="cls-1" d="M1056.36,516.13v12h-50v-12Z" transform="translate(-374.93 -357.92)"/><path class="cls-1" d="M1121.28,523.88v65.23h-22.85v-136h22.85v62h68.36v-62h22.85v136h-22.85V523.88Z" transform="translate(-374.93 -357.92)"/><path class="cls-1" d="M1321.26,450l64.06,139.16h-23.24l-20.8-45.41H1283l-21.48,45.41h-11.43L1315.59,450Zm-34.28,85h50.1l-24.71-53.81Z" transform="translate(-374.93 -357.92)"/><path class="cls-1" d="M1443.8,521.53a72,72,0,0,0,4.3,25.68,56.16,56.16,0,0,0,11.82,19.19,50.41,50.41,0,0,0,17.82,12,59.15,59.15,0,0,0,22.31,4.15,35.29,35.29,0,0,0,13.77-2.78,54.08,54.08,0,0,0,12.35-7.23,60.88,60.88,0,0,0,10.21-10.06,66.56,66.56,0,0,0,7.42-11.38l9.57,6.15a90.64,90.64,0,0,1-9.91,13.18,64.89,64.89,0,0,1-13.23,11.18,68.89,68.89,0,0,1-17,7.76,71.57,71.57,0,0,1-21.19,2.93,84.07,84.07,0,0,1-21.19-2.59,77.77,77.77,0,0,1-18.31-7.23,68.39,68.39,0,0,1-26.07-25.59,70.69,70.69,0,0,1-9.42-35.4,69.68,69.68,0,0,1,2.49-18.6,71.16,71.16,0,0,1,7.13-17,69.77,69.77,0,0,1,11.38-14.6A71,71,0,0,1,1453.22,460a78.19,78.19,0,0,1,18.51-7.37,84.45,84.45,0,0,1,21.48-2.64,65.07,65.07,0,0,1,20,2.93,71.37,71.37,0,0,1,16.7,7.76,68,68,0,0,1,13.43,11.18A85.38,85.38,0,0,1,1553.37,485l-9.86,6.64q-8.59-16.5-19.14-24.22a40,40,0,0,0-24.22-7.71,56.53,56.53,0,0,0-22.07,4.3,52.31,52.31,0,0,0-17.87,12.3,58,58,0,0,0-12,19.43A71.37,71.37,0,0,0,1443.8,521.53Z" transform="translate(-374.93 -357.92)"/><path class="cls-1" d="M1601.69,453.08h22.85v60.25L1696,453.08H1711l-68,57.23,86.23,78.81h-29.1l-75.59-69v69h-22.85Z" transform="translate(-374.93 -357.92)"/><path class="cls-2" d="M547.53,562.65c-4.41-10.08-13.23-18.27-24.57-23.31-6.3-2.52-11.34-3.15-18.9-3.15H488.32l-16.38,15.75h22a32.9,32.9,0,0,1,13.23,2.52,49.41,49.41,0,0,1,11.34,6.93c3.78,3.15,6.93,6.93,8.19,10.08.63,3.15,2.52,8.82,2.52,12.6v52.28a28.2,28.2,0,0,1-2.52,12.6A21.64,21.64,0,0,1,518.55,659c-3.78,3.15-8.19,6.3-11.34,6.93A32.9,32.9,0,0,1,494,668.47H431A32.9,32.9,0,0,1,417.77,666,49.42,49.42,0,0,1,406.43,659c-3.78-3.15-6.93-6.93-8.19-10.08a32,32,0,0,1-2.52-12.6V584.69a28.2,28.2,0,0,1,2.52-12.6A21.64,21.64,0,0,1,406.43,562c3.78-3.15,8.19-6.3,11.34-6.93A32.9,32.9,0,0,1,431,552.57h34l17-15.75H423.43c-6.93,0-12.6.63-18.9,3.15A29.23,29.23,0,0,0,390,549.42c-4.41,3.15-8.19,8.82-10.08,13.86a39.46,39.46,0,0,0-3.78,17v61.1c0,6.3.63,11.34,3.78,17,2.52,5,6.93,9.45,10.08,13.86,4.41,4.41,8.82,6.93,14.49,9.45,6.3,2.52,11.34,3.15,18.9,3.15H506c6.93,0,12.6-.63,18.9-3.15a29.23,29.23,0,0,0,14.49-9.45c4.41-3.15,8.19-8.82,10.08-13.86a39.46,39.46,0,0,0,3.78-17V579.65C550.68,574,550,567.06,547.53,562.65Z" transform="translate(-374.93 -357.92)"/><path class="cls-3" d="M420.92,596.66,657.14,367.37l1.26-9.45L478.87,531.78H467.53l66.77-64.25-17.64-12.6L435.4,533H424.06L473.2,485.8l-8.82-6.93-58,56.06c-.63,0-.63,0-1.89.63-6.3,2.52-10.71,6.3-15.12,9.45s-8.19,8.82-10.71,13.86a39.46,39.46,0,0,0-3.78,17v63c0,6.3.63,12,3.78,17,2.52,5,6.93,10.08,10.71,13.86,4.41,4.41,8.82,7.56,15.12,9.45,6.93,2.52,11.34,3.15,18.9,3.15h83.78c6.93,0,12.6-.63,18.9-3.15,6.3-1.89,10.71-6.3,15.12-9.45s8.19-8.82,10.71-13.86c.63-1.89,1.89-4.41,1.89-6.3v-80h0c0-1.89-.63-3.15-1.89-5l71.81-69.92-13.23-10.08-67.4,66.14-1.89-1.89c-2.52-3.15-8.19-6.3-10.71-8.82L638.24,436.66l-10.08-19.53L504.69,536.19h-17l-23.31,22.68h17l-78.74,76.85V577.14c0-6.3,2.52-11.34,8.19-15.75a20.62,20.62,0,0,1,17-6.3h30.87l-33.39,32.76ZM507.21,562c2.52,0,6.3.63,8.19,1.89,6.3,2.52,8.82,6.93,11.34,12v63a20.12,20.12,0,0,1-1.89,8.82c-3.78,7.56-12.6,12.6-22,12.6H422.18c-2.52,0-6.93-.63-8.82-1.89a58.26,58.26,0,0,1-6.3-3.15Z" transform="translate(-374.93 -357.92)"/></svg>